<svg width="165" height="43" viewBox="0 0 165 43" fill="none" xmlns="http://www.w3.org/2000/svg">
<rect width="165" height="43" fill="white"/>
<path d="M50.6592 22.3818V25H48.6768V17.0361H52.0742C52.7214 17.0361 53.2956 17.1523 53.7969 17.3848C54.2982 17.6126 54.6833 17.9385 54.9521 18.3623C55.2256 18.7861 55.3623 19.2646 55.3623 19.7979C55.3623 20.5863 55.0638 21.2152 54.4668 21.6846C53.8698 22.1494 53.0609 22.3818 52.04 22.3818H50.6592ZM50.6592 20.7891H52.0742C52.4935 20.7891 52.8171 20.7025 53.0449 20.5293C53.2773 20.3561 53.3936 20.1169 53.3936 19.8115C53.3936 19.4606 53.2773 19.1781 53.0449 18.9639C52.8171 18.7497 52.5003 18.6403 52.0947 18.6357H50.6592V20.7891ZM63.6816 21.1787C63.6816 21.958 63.529 22.6462 63.2236 23.2432C62.9183 23.8402 62.4808 24.3005 61.9111 24.624C61.346 24.9476 60.7035 25.1094 59.9834 25.1094C59.2588 25.1094 58.6117 24.9499 58.042 24.6309C57.4769 24.3118 57.0394 23.8584 56.7295 23.2705C56.4196 22.6781 56.2624 21.9967 56.2578 21.2266V20.8711C56.2578 20.0872 56.4105 19.3968 56.7158 18.7998C57.0212 18.2028 57.4564 17.7425 58.0215 17.4189C58.5866 17.0908 59.236 16.9268 59.9697 16.9268C60.6898 16.9268 61.3301 17.0863 61.8906 17.4053C62.4557 17.7243 62.8932 18.1823 63.2031 18.7793C63.5176 19.3717 63.6771 20.0553 63.6816 20.8301V21.1787ZM61.6992 20.8643C61.6992 20.1077 61.5465 19.5267 61.2412 19.1211C60.9404 18.7155 60.5166 18.5127 59.9697 18.5127C59.4046 18.5127 58.974 18.7155 58.6777 19.1211C58.3861 19.5267 58.2402 20.1077 58.2402 20.8643V21.1787C58.2402 21.9215 58.3906 22.5003 58.6914 22.915C58.9922 23.3298 59.4229 23.5371 59.9834 23.5371C60.512 23.5371 60.929 23.332 61.2344 22.9219C61.5443 22.5117 61.6992 21.9238 61.6992 21.1582V20.8643ZM69.2393 22.8604C69.2393 22.596 69.1276 22.3841 68.9043 22.2246C68.681 22.0651 68.3005 21.9215 67.7627 21.7939C67.2249 21.6663 66.7715 21.5319 66.4023 21.3906C66.0378 21.2448 65.737 21.0739 65.5 20.8779C65.263 20.682 65.0876 20.4564 64.9736 20.2012C64.8597 19.9414 64.8027 19.6338 64.8027 19.2783C64.8027 18.5947 65.0876 18.0319 65.6572 17.5898C66.2269 17.1478 66.9606 16.9268 67.8584 16.9268C68.8382 16.9268 69.6289 17.1501 70.2305 17.5967C70.8366 18.0387 71.1396 18.6449 71.1396 19.415H69.1641C69.1641 19.1234 69.0456 18.8796 68.8086 18.6836C68.5762 18.4876 68.2617 18.3896 67.8652 18.3896C67.5143 18.3896 67.2295 18.4671 67.0107 18.6221C66.792 18.777 66.6826 18.9707 66.6826 19.2031C66.6826 19.4355 66.7965 19.6247 67.0244 19.7705C67.2523 19.9118 67.6305 20.0485 68.1592 20.1807C69.221 20.4131 69.9798 20.7344 70.4355 21.1445C70.8958 21.5547 71.126 22.1084 71.126 22.8057C71.126 23.5166 70.8457 24.0794 70.2852 24.4941C69.7246 24.9043 68.959 25.1094 67.9883 25.1094C67.3275 25.1094 66.7305 25.0023 66.1973 24.7881C65.6641 24.5739 65.2516 24.2686 64.96 23.8721C64.6729 23.4756 64.5293 23.0062 64.5293 22.4639H66.5117C66.5117 22.8877 66.6416 23.193 66.9014 23.3799C67.1657 23.5667 67.5599 23.6602 68.084 23.6602C68.4395 23.6602 68.7197 23.5872 68.9248 23.4414C69.1344 23.2956 69.2393 23.1019 69.2393 22.8604ZM78.96 18.6357H76.376V25H74.3936V18.6357H71.8574V17.0361H78.96V18.6357ZM90.0068 18.6357H87.4229V25H85.4404V18.6357H82.9043V17.0361H90.0068V18.6357ZM95.8652 23.4824H92.7822L92.2217 25H90.2393L93.3906 17.0361H95.25L98.4287 25H96.4326L95.8652 23.4824ZM93.3154 22.0332H95.3184L94.3135 19.3398L93.3154 22.0332ZM103.528 22.8604C103.528 22.596 103.417 22.3841 103.193 22.2246C102.97 22.0651 102.59 21.9215 102.052 21.7939C101.514 21.6663 101.061 21.5319 100.691 21.3906C100.327 21.2448 100.026 21.0739 99.7891 20.8779C99.5521 20.682 99.3766 20.4564 99.2627 20.2012C99.1488 19.9414 99.0918 19.6338 99.0918 19.2783C99.0918 18.5947 99.3766 18.0319 99.9463 17.5898C100.516 17.1478 101.25 16.9268 102.147 16.9268C103.127 16.9268 103.918 17.1501 104.52 17.5967C105.126 18.0387 105.429 18.6449 105.429 19.415H103.453C103.453 19.1234 103.335 18.8796 103.098 18.6836C102.865 18.4876 102.551 18.3896 102.154 18.3896C101.803 18.3896 101.519 18.4671 101.3 18.6221C101.081 18.777 100.972 18.9707 100.972 19.2031C100.972 19.4355 101.086 19.6247 101.313 19.7705C101.541 19.9118 101.92 20.0485 102.448 20.1807C103.51 20.4131 104.269 20.7344 104.725 21.1445C105.185 21.5547 105.415 22.1084 105.415 22.8057C105.415 23.5166 105.135 24.0794 104.574 24.4941C104.014 24.9043 103.248 25.1094 102.277 25.1094C101.617 25.1094 101.02 25.0023 100.486 24.7881C99.9531 24.5739 99.5407 24.2686 99.249 23.8721C98.9619 23.4756 98.8184 23.0062 98.8184 22.4639H100.801C100.801 22.8877 100.931 23.193 101.19 23.3799C101.455 23.5667 101.849 23.6602 102.373 23.6602C102.729 23.6602 103.009 23.5872 103.214 23.4414C103.424 23.2956 103.528 23.1019 103.528 22.8604ZM109.455 22.0264L108.587 22.8809V25H106.604V17.0361H108.587V20.3584L109.257 19.4561L111.178 17.0361H113.652L110.795 20.6113L113.728 25H111.39L109.455 22.0264Z" fill="black"/>
</svg>
