<svg width="165" height="55" viewBox="0 0 165 55" fill="none" xmlns="http://www.w3.org/2000/svg">
<rect x="2" y="2" width="161" height="51" stroke="white" stroke-width="4"/>
<path d="M21.6592 28.3818V31H19.6768V23.0361H23.0742C23.7214 23.0361 24.2956 23.1523 24.7969 23.3848C25.2982 23.6126 25.6833 23.9385 25.9521 24.3623C26.2256 24.7861 26.3623 25.2646 26.3623 25.7979C26.3623 26.5863 26.0638 27.2152 25.4668 27.6846C24.8698 28.1494 24.0609 28.3818 23.04 28.3818H21.6592ZM21.6592 26.7891H23.0742C23.4935 26.7891 23.8171 26.7025 24.0449 26.5293C24.2773 26.3561 24.3936 26.1169 24.3936 25.8115C24.3936 25.4606 24.2773 25.1781 24.0449 24.9639C23.8171 24.7497 23.5003 24.6403 23.0947 24.6357H21.6592V26.7891ZM29.4795 29.4141H33.1094V31H27.4971V23.0361H29.4795V29.4141ZM38.9609 29.4824H35.8779L35.3174 31H33.335L36.4863 23.0361H38.3457L41.5244 31H39.5283L38.9609 29.4824ZM36.4111 28.0332H38.4141L37.4092 25.3398L36.4111 28.0332ZM49.2969 31H47.3213L44.1768 26.0371V31H42.1943V23.0361H44.1768L47.3213 28.0059V23.0361H49.2969V31ZM57.7598 31H55.7842L52.6396 26.0371V31H50.6572V23.0361H52.6396L55.7842 28.0059V23.0361H57.7598V31ZM61.2324 31H59.25V23.0361H61.2324V31ZM69.832 31H67.8564L64.7119 26.0371V31H62.7295V23.0361H64.7119L67.8564 28.0059V23.0361H69.832V31ZM78.1377 30.0361C77.8278 30.3597 77.3743 30.6195 76.7773 30.8154C76.1849 31.0114 75.515 31.1094 74.7676 31.1094C73.6283 31.1094 72.7236 30.7767 72.0537 30.1113C71.3838 29.4414 71.0374 28.5208 71.0146 27.3496V26.8164C71.0146 25.6133 71.3428 24.6654 71.999 23.9727C72.6553 23.2754 73.5394 22.9268 74.6514 22.9268C75.6995 22.9268 76.5153 23.1569 77.0986 23.6172C77.682 24.0775 78.026 24.7679 78.1309 25.6885H76.2236C76.1598 25.3011 76.014 25.0094 75.7861 24.8135C75.5628 24.6175 75.2074 24.5195 74.7197 24.5195C74.1729 24.5195 73.749 24.7087 73.4482 25.0869C73.152 25.4652 73.0016 26.0257 72.9971 26.7686V27.2334C72.9971 28.0127 73.1543 28.5892 73.4688 28.9629C73.7832 29.3366 74.2594 29.5234 74.8975 29.5234C75.4717 29.5234 75.8887 29.4277 76.1484 29.2363V28.1016H74.6172V26.7002H78.1377V30.0361ZM84.8574 32.5449H78.6299V31H84.8574V32.5449ZM92.1924 24.6357H89.6084V31H87.626V24.6357H85.0898V23.0361H92.1924V24.6357ZM100.293 27.1787C100.293 27.958 100.14 28.6462 99.835 29.2432C99.5296 29.8402 99.0921 30.3005 98.5225 30.624C97.9574 30.9476 97.3148 31.1094 96.5947 31.1094C95.8701 31.1094 95.223 30.9499 94.6533 30.6309C94.0882 30.3118 93.6507 29.8584 93.3408 29.2705C93.0309 28.6781 92.8737 27.9967 92.8691 27.2266V26.8711C92.8691 26.0872 93.0218 25.3968 93.3271 24.7998C93.6325 24.2028 94.0677 23.7425 94.6328 23.4189C95.1979 23.0908 95.8473 22.9268 96.5811 22.9268C97.3011 22.9268 97.9414 23.0863 98.502 23.4053C99.0671 23.7243 99.5046 24.1823 99.8145 24.7793C100.129 25.3717 100.288 26.0553 100.293 26.8301V27.1787ZM98.3105 26.8643C98.3105 26.1077 98.1579 25.5267 97.8525 25.1211C97.5518 24.7155 97.1279 24.5127 96.5811 24.5127C96.016 24.5127 95.5853 24.7155 95.2891 25.1211C94.9974 25.5267 94.8516 26.1077 94.8516 26.8643V27.1787C94.8516 27.9215 95.002 28.5003 95.3027 28.915C95.6035 29.3298 96.0342 29.5371 96.5947 29.5371C97.1234 29.5371 97.5404 29.332 97.8457 28.9219C98.1556 28.5117 98.3105 27.9238 98.3105 27.1582V26.8643ZM106.979 32.5449H100.751V31H106.979V32.5449ZM107.669 31V23.0361H110.39C111.137 23.0361 111.812 23.1956 112.413 23.5146C113.015 23.8337 113.484 24.2826 113.821 24.8613C114.163 25.4355 114.339 26.0827 114.348 26.8027V27.1787C114.348 27.9033 114.179 28.5596 113.842 29.1475C113.509 29.7308 113.042 30.1865 112.44 30.5146C111.843 30.8382 111.167 31 110.41 31H107.669ZM109.651 24.6357V29.4141H110.41C111.085 29.4141 111.575 29.2432 111.88 28.9014C112.19 28.555 112.349 28.0104 112.358 27.2676V26.8574C112.358 26.0964 112.206 25.5404 111.9 25.1895C111.6 24.834 111.126 24.6494 110.479 24.6357H109.651ZM120.746 27.6846H117.458V29.4141H121.327V31H115.476V23.0361H121.334V24.6357H117.458V26.0918H120.746V27.6846ZM127.172 29.4824H124.089L123.528 31H121.546L124.697 23.0361H126.557L129.735 31H127.739L127.172 29.4824ZM124.622 28.0332H126.625L125.62 25.3398L124.622 28.0332ZM136.612 24.6357H134.028V31H132.046V24.6357H129.51V23.0361H136.612V24.6357ZM144.638 31H142.662V27.8965H139.511V31H137.528V23.0361H139.511V26.3037H142.662V23.0361H144.638V31Z" fill="white"/>
</svg>
